<svg width="54" height="54" viewBox="0 0 54 54" fill="none" xmlns="http://www.w3.org/2000/svg">
<g clip-path="url(#clip0_1_785)">
<g clip-path="url(#clip1_1_785)">
<mask id="mask0_1_785" style="mask-type:alpha" maskUnits="userSpaceOnUse" x="0" y="1" width="54" height="53">
<path d="M0.846863 9.49389C0.846863 7.73106 0.846863 6.84964 1.16426 6.12966C1.44411 5.49484 1.89522 4.9505 2.46704 4.55764C3.11557 4.11208 3.98166 3.94843 5.71384 3.62111L14.5181 1.95739C15.8806 1.69994 16.5618 1.57121 17.1987 1.67071C17.7617 1.75867 18.2971 1.97428 18.764 2.30102C19.2921 2.67062 19.694 3.23551 20.4978 4.36529L26.6918 13.071L33.474 4.17967C34.286 3.11492 34.6922 2.58255 35.2128 2.23595C35.6731 1.92944 36.1958 1.72899 36.7431 1.64907C37.362 1.55869 38.0199 1.68301 39.3357 1.93167L48.2762 3.6211C50.0084 3.94843 50.8744 4.11208 51.5229 4.55764C52.0948 4.9505 52.5459 5.49484 52.8258 6.12966C53.1431 6.84964 53.1431 7.73105 53.1431 9.49388V45.2959C53.1431 47.0587 53.1431 47.9401 52.8258 48.6601C52.5459 49.295 52.0948 49.8393 51.5229 50.2321C50.8744 50.6776 50.0084 50.8413 48.2762 51.1687L39.3357 52.8581C38.0199 53.1068 37.362 53.2311 36.7431 53.1407C36.1958 53.0608 35.6731 52.8604 35.2128 52.5538C34.6922 52.2072 34.286 51.6749 33.474 50.6101L26.6918 41.7188L20.4978 50.4245C19.694 51.5543 19.2921 52.1192 18.764 52.4887C18.2971 52.8155 17.7617 53.0311 17.1987 53.119C16.5618 53.2186 15.8806 53.0898 14.5181 52.8324L5.71384 51.1686C3.98166 50.8413 3.11557 50.6776 2.46704 50.2321C1.89522 49.8393 1.44411 49.295 1.16426 48.6601C0.846863 47.9401 0.846863 47.0587 0.846863 45.2959V9.49389Z" fill="#D9D9D9"/>
</mask>
<g mask="url(#mask0_1_785)">
<path d="M35.711 53.5429L18.2789 30.689V1.24658L53.1431 50.2486L35.711 53.5429Z" fill="#00018F"/>
<path d="M0.846863 4.54083L18.279 1.24658V53.5429L0.846863 50.2486V4.54083Z" fill="#9EBFFF"/>
<path d="M35.7112 1.24658L53.1433 4.54083V50.2486L35.7112 53.5429V1.24658Z" fill="#1718FF"/>
<path d="M35.711 1.24658L18.2789 24.1005V53.5429L53.1431 4.54083L35.711 1.24658Z" fill="#4E80FF"/>
</g>
</g>
</g>
<defs>
<clipPath id="clip0_1_785">
<rect width="52.95" height="52.95" fill="white" transform="translate(0.52002 0.919922)"/>
</clipPath>
<clipPath id="clip1_1_785">
<rect width="52.95" height="52.95" fill="white" transform="translate(0.52002 0.919922)"/>
</clipPath>
</defs>
</svg>
