<svg width="80" height="14" viewBox="0 0 80 14" fill="none" xmlns="http://www.w3.org/2000/svg">
<path d="M6.06 13.8C2.06 13.8 0.02 12.04 0.02 9.22V9.1H2.18V9.42C2.18 11.02 3.12 11.82 6.06 11.82C8.62 11.82 9.52 11.26 9.52 10C9.52 8.84 8.84 8.4 7.14 8.08L3.86 7.54C1.6 7.14 0 6.1 0 3.9C0 1.96 1.6 0 5.76 0C9.68 0 11.46 1.96 11.46 4.58V4.7H9.32V4.44C9.32 2.8 8.34 1.98 5.56 1.98C3.12 1.98 2.16 2.58 2.16 3.78C2.16 4.94 2.84 5.32 4.42 5.66L7.68 6.22C10.36 6.7 11.68 7.92 11.68 9.88C11.68 11.92 10.02 13.8 6.06 13.8Z" fill="white"/>
<path d="M21.1334 13.6H18.8534C16.7134 13.6 15.3934 12.66 15.3934 10.24V5.46H13.7134V3.66H15.3934V1.48H17.5334V3.66H21.1334V5.46H17.5334V10.12C17.5334 11.34 18.0934 11.66 19.3334 11.66H21.1334V13.6Z" fill="white"/>
<path d="M26.8045 13.8C24.7445 13.8 23.4445 12.84 23.4445 11.2C23.4445 9.66 24.6845 8.86 26.6445 8.64L31.1645 8.16V7.58C31.1645 5.94 30.4445 5.36 28.5445 5.36C26.7045 5.36 25.8045 5.96 25.8045 7.42V7.5H23.6645V7.42C23.6645 5.16 25.5445 3.46 28.7045 3.46C31.8645 3.46 33.2845 5.18 33.2845 7.56V13.6H31.3045V11.12H31.1645C30.6445 12.8 29.0645 13.8 26.8045 13.8ZM25.6045 11.06C25.6045 11.86 26.1445 12.24 27.3845 12.24C29.6445 12.24 31.1645 11.4 31.1645 9.44L27.2645 9.88C26.1445 10.02 25.6045 10.28 25.6045 11.06Z" fill="white"/>
<path d="M38.7727 13.6H36.6127V3.66H38.5927V6.34H38.7327C39.0327 4.74 40.1127 3.46 42.1527 3.46C44.4127 3.46 45.3927 5.08 45.3927 6.96V8.26H43.2527V7.38C43.2527 5.96 42.6527 5.3 41.1727 5.3C39.4727 5.3 38.7727 6.24 38.7727 8.02V13.6Z" fill="white"/>
<path d="M54.6694 13.6H52.3894C50.2494 13.6 48.9294 12.66 48.9294 10.24V5.46H47.2494V3.66H48.9294V1.48H51.0694V3.66H54.6694V5.46H51.0694V10.12C51.0694 11.34 51.6294 11.66 52.8694 11.66H54.6694V13.6Z" fill="white"/>
<path d="M63.3805 8.64H57.0205V6.8H63.3805V8.64Z" fill="white"/>
<path d="M68.1791 13.6H65.3791L70.7791 6.94V6.78L65.3791 0.2H68.1791L72.5391 5.48H72.6991L76.9591 0.2H79.7591L74.3591 6.8V6.96L79.7591 13.6H76.9591L72.6191 8.22H72.4591L68.1791 13.6Z" fill="white"/>
</svg>
